<?xml version="1.0" encoding="UTF-8" standalone="no"?>
<!DOCTYPE svg PUBLIC "-//W3C//DTD SVG 1.1//EN" "http://www.w3.org/Graphics/SVG/1.1/DTD/svg11.dtd">
<svg width="100%" height="100%" viewBox="0 0 200 200" version="1.1" xmlns="http://www.w3.org/2000/svg" xmlns:xlink="http://www.w3.org/1999/xlink" xml:space="preserve" xmlns:serif="http://www.serif.com/" style="fill-rule:evenodd;clip-rule:evenodd;stroke-linejoin:round;stroke-miterlimit:2;">
    <g id="vendredi" transform="matrix(1,0,0,1,30.8471,33.9074)">
        <path d="M149.123,38.098L148.973,40.498C139.223,43.348 132.923,53.848 131.423,62.698C110.273,51.148 91.073,34.648 82.823,8.998C73.523,23.698 57.623,38.248 39.623,50.098L82.523,50.098L92.573,37.348C92.573,37.348 103.823,45.898 110.723,51.898C110.273,53.548 108.623,54.298 106.523,54.298L84.473,54.298L84.473,75.748L106.823,75.748L117.623,61.498C117.623,61.498 130.073,71.098 137.423,77.548C136.973,79.198 135.323,79.948 133.073,79.948L84.473,79.948L84.473,127.948L111.023,127.948L123.023,112.348C123.023,112.348 136.673,122.698 144.773,129.748C144.323,131.398 142.523,132.148 140.273,132.148L8.123,132.148L6.923,127.948L61.823,127.948L61.823,79.948L15.773,79.948L14.573,75.748L61.823,75.748L61.823,54.298L39.923,54.298L38.873,50.548C27.473,58.048 15.323,64.348 3.623,68.698L2.723,67.198C28.373,49.498 55.223,16.798 60.773,-5.102L93.323,3.448C92.723,5.698 90.623,6.598 85.073,7.198C98.873,25.648 127.973,33.598 149.123,38.098ZM11.056,63.518C20.041,59.56 29.125,54.567 37.774,48.877C37.921,48.78 38.079,48.704 38.243,48.65C38.329,48.569 38.422,48.494 38.523,48.428C56.269,36.745 71.964,22.421 81.133,7.929C81.548,7.273 82.305,6.916 83.075,7.014L83.081,7.015C83.1,6.806 83.153,6.598 83.239,6.4C83.526,5.741 84.144,5.287 84.858,5.21C86.731,5.007 88.179,4.778 89.287,4.456C81.231,2.34 62.173,-2.666 62.173,-2.666C56.146,17.419 33.966,45.442 11.056,63.518ZM85.649,11.087C93.845,33.751 111.003,48.824 130.044,59.641C132.182,51.591 137.801,43.014 145.974,39.462C125.792,35.001 99.777,27.268 85.649,11.087ZM41.384,52.098L41.44,52.298L61.823,52.298C62.927,52.298 63.823,53.194 63.823,54.298L63.823,75.748C63.823,76.853 62.927,77.748 61.823,77.748C61.823,77.748 17.224,77.748 17.224,77.748L17.281,77.948L61.823,77.948C62.927,77.948 63.823,78.844 63.823,79.948L63.823,127.948C63.823,129.053 62.927,129.948 61.823,129.948C61.823,129.948 9.574,129.948 9.574,129.948L9.631,130.148L140.273,130.148C140.877,130.148 141.437,130.085 141.918,129.932C135.579,124.542 126.91,117.842 123.393,115.147L112.608,129.168C112.229,129.66 111.644,129.948 111.023,129.948L84.473,129.948C83.368,129.948 82.473,129.053 82.473,127.948L82.473,79.948C82.473,78.844 83.368,77.948 84.473,77.948L133.073,77.948C133.645,77.948 134.164,77.893 134.606,77.753C128.948,72.904 121.275,66.874 117.995,64.319L108.417,76.956C108.039,77.455 107.449,77.748 106.823,77.748L84.473,77.748C83.368,77.748 82.473,76.853 82.473,75.748L82.473,54.298C82.473,53.194 83.368,52.298 84.473,52.298L106.523,52.298C107.029,52.298 107.499,52.246 107.906,52.116C102.718,47.718 95.936,42.452 92.923,40.135L84.094,51.336C83.714,51.817 83.135,52.098 82.523,52.098L41.384,52.098ZM92.123,122.698L90.473,121.648C93.023,112.648 96.623,97.498 99.323,84.448L127.223,94.348C126.623,96.298 124.523,97.498 121.073,97.348C112.223,106.948 101.573,116.398 92.123,122.698ZM93.117,119.593C101.903,113.42 111.512,104.768 119.602,95.993C120.002,95.56 120.571,95.324 121.16,95.35C122.101,95.391 122.915,95.341 123.571,95.175C123.571,95.175 100.812,87.099 100.812,87.099C98.419,98.451 95.449,110.994 93.117,119.593ZM28.223,86.098L29.573,85.498C73.823,100.798 49.973,134.698 32.873,116.848C33.623,106.048 31.373,95.098 28.223,86.098ZM31.012,88.145C33.67,96.559 35.453,106.352 34.925,116.072C39.129,120.089 43.693,120.708 47.204,119.035C49.724,117.834 51.654,115.495 52.444,112.586C54.426,105.284 49.435,95.106 31.012,88.145Z" style="fill:white;"/>
    </g>
</svg>
