<?xml version="1.0" encoding="UTF-8" standalone="no"?>
<!DOCTYPE svg PUBLIC "-//W3C//DTD SVG 1.1//EN" "http://www.w3.org/Graphics/SVG/1.1/DTD/svg11.dtd">
<svg width="100%" height="100%" viewBox="0 0 200 200" version="1.1" xmlns="http://www.w3.org/2000/svg" xmlns:xlink="http://www.w3.org/1999/xlink" xml:space="preserve" xmlns:serif="http://www.serif.com/" style="fill-rule:evenodd;clip-rule:evenodd;stroke-linejoin:round;stroke-miterlimit:2;">
    <g id="lundi">
        <g transform="matrix(0.689821,0,0,0.663303,30.9473,33.8058)">
            <path d="M155.146,-2.111L184.066,21.634C182.761,23.443 180.152,25.478 175.586,26.383L175.586,170.661C175.586,192.596 170.584,204.808 134.271,208.2C133.401,197.119 131.879,189.204 127.747,184.229C123.398,179.254 118.179,175.636 104.915,172.922L104.915,170.208C104.915,170.208 132.531,171.791 138.185,171.791C141.881,171.791 142.968,169.982 142.968,166.816L142.968,123.397L78.387,123.397C73.385,155.962 57.729,187.621 10.76,208.426L9.238,206.843C44.682,173.148 48.814,130.634 48.814,85.858L48.814,2.186L85.562,14.85L140.794,14.85L155.146,-2.111ZM18.721,201.281C57.428,181.117 70.993,152.423 75.524,122.922C75.748,121.459 76.962,120.382 78.387,120.382L142.968,120.382C144.57,120.382 145.868,121.732 145.868,123.397L145.868,166.816C145.868,169.292 145.266,171.182 144.118,172.508C142.95,173.857 141.125,174.807 138.185,174.807C135.285,174.807 126.634,174.393 118.86,173.988C123.979,176.28 127.094,179 129.892,182.201C129.909,182.22 129.925,182.239 129.941,182.258C133.992,187.136 135.882,194.591 136.892,204.903C152.275,203.193 161.308,199.824 166.463,194.287C171.766,188.591 172.686,180.707 172.686,170.661L172.686,26.383C172.686,24.935 173.676,23.692 175.043,23.421C176.942,23.045 178.426,22.454 179.553,21.77L155.506,2.027L142.971,16.842C142.42,17.492 141.627,17.865 140.794,17.865L85.562,17.865C85.252,17.865 84.945,17.813 84.65,17.712L51.713,6.361L51.713,85.858C51.713,128.097 47.939,168.303 18.721,201.281Z" style="fill:white;"/>
        </g>
        <path d="M84.712,46.399L83.267,113.086L131.085,113.104L131.674,46.227L84.712,46.399Z" style="fill:none;"/>
        <clipPath id="_clip1">
            <path d="M84.712,46.399L83.267,113.086L131.085,113.104L131.674,46.227L84.712,46.399Z"/>
        </clipPath>
        <g clip-path="url(#_clip1)">
            <g transform="matrix(1,0,0,1,30.8471,33.9074)">
                <path d="M107.123,-1.502L127.073,14.248C126.173,15.448 124.373,16.798 121.223,17.398L121.223,113.098C121.223,127.648 117.773,135.748 92.723,137.998C92.123,130.648 91.073,125.398 88.223,122.098C85.223,118.798 81.623,116.398 72.473,114.598L72.473,112.798C72.473,112.798 91.523,113.848 95.423,113.848C97.973,113.848 98.723,112.648 98.723,110.548L98.723,81.748L54.173,81.748C50.723,103.348 39.923,124.348 7.523,138.148L6.473,137.098C30.923,114.748 33.773,86.548 33.773,56.848L33.773,1.348L59.123,9.748L97.223,9.748L107.123,-1.502ZM8.38,136.688C39.382,123.066 49.826,102.625 53.185,81.59C53.263,81.105 53.681,80.748 54.173,80.748L98.723,80.748C99.275,80.748 99.723,81.196 99.723,81.748L99.723,110.548C99.723,111.894 99.421,112.934 98.772,113.655C98.117,114.383 97.074,114.848 95.423,114.848C92.187,114.848 78.546,114.128 73.942,113.88C82.486,115.717 85.999,118.165 88.963,121.426C88.968,121.432 88.974,121.438 88.98,121.445C91.804,124.715 92.99,129.812 93.633,136.908C105.193,135.773 111.873,133.365 115.648,129.465C119.474,125.514 120.223,120.067 120.223,113.098L120.223,17.398C120.223,16.918 120.564,16.506 121.036,16.416C123.219,16 124.688,15.204 125.611,14.368L107.247,-0.13L97.974,10.409C97.784,10.625 97.51,10.748 97.223,10.748L59.123,10.748C59.016,10.748 58.91,10.731 58.808,10.697L34.773,2.733L34.773,56.848C34.773,86.323 31.928,114.313 8.38,136.688ZM53.781,77.422C54.675,70.414 54.823,63.556 54.823,56.698L54.823,47.248C54.823,46.696 55.271,46.248 55.823,46.248L98.723,46.248C99.275,46.248 99.723,46.696 99.723,47.248L99.723,77.548C99.723,78.1 99.275,78.548 98.723,78.548L54.773,78.548C54.486,78.548 54.212,78.425 54.022,78.209C53.832,77.993 53.744,77.707 53.781,77.422ZM54.773,77.548L98.723,77.548L98.723,47.248L55.823,47.248L55.823,56.698C55.823,63.598 55.673,70.498 54.773,77.548ZM99.723,13.948L99.723,43.048C99.723,43.6 99.275,44.048 98.723,44.048L55.823,44.048C55.271,44.048 54.823,43.6 54.823,43.048L54.823,13.948C54.823,13.396 55.271,12.948 55.823,12.948L98.723,12.948C99.275,12.948 99.723,13.396 99.723,13.948ZM98.723,13.948L55.823,13.948L55.823,43.048L98.723,43.048L98.723,13.948Z" style="fill:white;"/>
            </g>
        </g>
    </g>
</svg>
