<?xml version="1.0" encoding="UTF-8" standalone="no"?>
<!DOCTYPE svg PUBLIC "-//W3C//DTD SVG 1.1//EN" "http://www.w3.org/Graphics/SVG/1.1/DTD/svg11.dtd">
<svg width="100%" height="100%" viewBox="0 0 200 200" version="1.1" xmlns="http://www.w3.org/2000/svg" xmlns:xlink="http://www.w3.org/1999/xlink" xml:space="preserve" xmlns:serif="http://www.serif.com/" style="fill-rule:evenodd;clip-rule:evenodd;stroke-linejoin:round;stroke-miterlimit:2;">
    <g id="samedi" transform="matrix(1,0,0,1,30.8471,33.9074)">
        <path d="M111.623,125.548L124.223,109.498C124.223,109.498 138.323,120.148 146.873,127.348C146.423,128.998 144.623,129.748 142.373,129.748L5.273,129.748L4.073,125.548L62.723,125.548L62.723,54.898L14.873,54.898L13.673,50.698L62.723,50.698L62.723,-4.652L91.523,-2.102C91.223,0.298 90.173,1.798 85.973,2.398L85.973,50.698L104.423,50.698L116.573,35.248C116.573,35.248 130.223,45.448 138.323,52.498C138.023,54.148 136.223,54.898 133.973,54.898L85.973,54.898L85.973,125.548L111.623,125.548ZM143.984,127.543C137.263,121.986 128.181,115.023 124.581,112.281L113.196,126.783C112.817,127.266 112.237,127.548 111.623,127.548L85.973,127.548C84.868,127.548 83.973,126.653 83.973,125.548L83.973,54.898C83.973,53.794 84.868,52.898 85.973,52.898L133.973,52.898C134.532,52.898 135.054,52.845 135.505,52.714C129.154,47.325 120.444,40.677 116.934,38.024L105.995,51.934C105.616,52.417 105.036,52.698 104.423,52.698L85.973,52.698C84.868,52.698 83.973,51.803 83.973,50.698L83.973,2.398C83.973,1.403 84.705,0.559 85.69,0.418C86.98,0.234 87.884,0.015 88.492,-0.362C81.62,-0.971 64.723,-2.467 64.723,-2.467L64.723,50.698C64.723,51.803 63.827,52.698 62.723,52.698C62.723,52.698 16.324,52.698 16.324,52.698C16.324,52.698 16.381,52.898 16.381,52.898L62.723,52.898C63.827,52.898 64.723,53.794 64.723,54.898L64.723,125.548C64.723,126.653 63.827,127.548 62.723,127.548C62.723,127.548 6.724,127.548 6.724,127.548L6.781,127.748L142.373,127.748C142.962,127.748 143.51,127.688 143.984,127.543Z" style="fill:white;"/>
    </g>
</svg>
