<?xml version="1.0" encoding="UTF-8" standalone="no"?>
<!DOCTYPE svg PUBLIC "-//W3C//DTD SVG 1.1//EN" "http://www.w3.org/Graphics/SVG/1.1/DTD/svg11.dtd">
<svg width="100%" height="100%" viewBox="0 0 200 200" version="1.1" xmlns="http://www.w3.org/2000/svg" xmlns:xlink="http://www.w3.org/1999/xlink" xml:space="preserve" xmlns:serif="http://www.serif.com/" style="fill-rule:evenodd;clip-rule:evenodd;stroke-linejoin:round;stroke-miterlimit:2;">
    <g id="dimanche" transform="matrix(1,0,0,1,30.8471,33.9074)">
        <path d="M112.373,0.298L132.623,16.498C131.573,17.848 129.923,19.048 126.923,19.798L126.923,128.698C126.623,130.348 115.673,135.598 106.973,135.598L103.223,135.598L103.223,121.498L49.523,121.498L49.523,128.698C49.523,131.548 40.223,137.098 30.323,137.098L26.573,137.098L26.573,2.398L50.873,11.998L101.723,11.998L112.373,0.298ZM47.523,128.606L47.523,121.498C47.523,120.394 48.418,119.498 49.523,119.498L103.223,119.498C104.327,119.498 105.223,120.394 105.223,121.498C105.223,121.498 105.223,133.598 105.223,133.598L106.973,133.598C112.725,133.598 119.513,131.152 123.168,129.16C123.862,128.782 124.569,128.275 124.923,128.011L124.923,19.798C124.923,18.88 125.547,18.08 126.438,17.858C127.767,17.526 128.776,17.101 129.555,16.605L112.589,3.032L103.202,13.344C102.823,13.761 102.286,13.998 101.723,13.998L50.873,13.998C50.621,13.998 50.372,13.951 50.138,13.858L28.573,5.339C28.573,5.339 28.573,135.098 28.573,135.098L30.323,135.098C36.746,135.098 42.907,132.609 46.02,130.19C46.574,129.759 47.022,129.34 47.322,128.938C47.4,128.834 47.491,128.666 47.523,128.606ZM47.523,117.298L47.523,67.798C47.523,66.694 48.418,65.798 49.523,65.798L103.223,65.798C104.327,65.798 105.223,66.694 105.223,67.798L105.223,117.298C105.223,118.403 104.327,119.298 103.223,119.298L49.523,119.298C48.418,119.298 47.523,118.403 47.523,117.298ZM49.523,117.298L103.223,117.298L103.223,67.798L49.523,67.798L49.523,117.298ZM105.223,16.198L105.223,63.598C105.223,64.703 104.327,65.598 103.223,65.598L49.523,65.598C48.418,65.598 47.523,64.703 47.523,63.598L47.523,16.198C47.523,15.094 48.418,14.198 49.523,14.198L103.223,14.198C104.327,14.198 105.223,15.094 105.223,16.198ZM103.223,16.198L49.523,16.198L49.523,63.598L103.223,63.598L103.223,16.198Z" style="fill:white;"/>
    </g>
</svg>
