<?xml version="1.0" encoding="UTF-8" standalone="no"?>
<!DOCTYPE svg PUBLIC "-//W3C//DTD SVG 1.1//EN" "http://www.w3.org/Graphics/SVG/1.1/DTD/svg11.dtd">
<svg width="100%" height="100%" viewBox="0 0 200 200" version="1.1" xmlns="http://www.w3.org/2000/svg" xmlns:xlink="http://www.w3.org/1999/xlink" xml:space="preserve" xmlns:serif="http://www.serif.com/" style="fill-rule:evenodd;clip-rule:evenodd;stroke-linejoin:round;stroke-miterlimit:2;">
    <g id="jeudi" transform="matrix(1,0,0,1,30.8471,33.9074)">
        <path d="M141.323,38.698L87.773,38.698C99.623,67.048 123.773,86.848 148.223,96.148L147.773,97.948C139.223,99.748 132.173,106.948 129.023,117.748C105.923,101.848 93.023,77.098 85.673,40.648L85.673,130.198C85.673,132.298 75.923,137.848 67.373,137.848L63.173,137.848L63.173,72.298C49.373,92.248 29.723,108.598 4.373,120.598L3.173,119.248C27.623,99.298 45.623,67.498 53.573,38.698L7.373,38.698L6.173,34.498L63.173,34.498L63.173,-4.502L91.223,-1.802C90.923,0.298 89.873,1.948 85.673,2.548L85.673,34.498L111.623,34.498L123.773,19.048C123.773,19.048 137.573,29.398 145.823,36.298C145.373,37.948 143.573,38.698 141.323,38.698ZM88.797,45.714C95.933,77.454 107.773,99.707 127.971,114.546C131.264,105.592 137.264,99.363 144.468,96.806C122.447,87.644 101.065,70.149 88.797,45.714ZM10.986,115.04C32.414,103.633 49.303,88.834 61.528,71.16C62.026,70.441 62.934,70.128 63.769,70.389C64.604,70.65 65.173,71.423 65.173,72.298L65.173,135.848L67.373,135.848C72.932,135.848 79.036,133.316 82.199,131.131C82.798,130.717 83.452,130.079 83.673,129.857L83.673,40.648C83.673,39.621 84.452,38.76 85.474,38.658C85.575,38.648 85.675,38.646 85.773,38.651C85.782,38.278 85.895,37.909 86.108,37.59C86.479,37.033 87.104,36.698 87.773,36.698L141.323,36.698C141.909,36.698 142.454,36.639 142.925,36.495C136.451,31.183 127.662,24.493 124.134,21.825L113.195,35.734C112.816,36.217 112.236,36.498 111.623,36.498L85.673,36.498C84.568,36.498 83.673,35.603 83.673,34.498L83.673,2.548C83.673,1.553 84.405,0.709 85.39,0.568C86.514,0.408 87.344,0.199 87.942,-0.108L65.173,-2.3L65.173,34.498C65.173,35.603 64.277,36.498 63.173,36.498C63.173,36.498 8.824,36.498 8.824,36.498L8.881,36.698L53.573,36.698C54.197,36.698 54.786,36.99 55.164,37.487C55.542,37.983 55.667,38.628 55.501,39.23C48.176,65.764 32.414,94.801 10.986,115.04Z" style="fill:white;"/>
    </g>
</svg>
