<?xml version="1.0" encoding="UTF-8" standalone="no"?>
<!DOCTYPE svg PUBLIC "-//W3C//DTD SVG 1.1//EN" "http://www.w3.org/Graphics/SVG/1.1/DTD/svg11.dtd">
<svg width="100%" height="100%" viewBox="0 0 200 200" version="1.1" xmlns="http://www.w3.org/2000/svg" xmlns:xlink="http://www.w3.org/1999/xlink" xml:space="preserve" xmlns:serif="http://www.serif.com/" style="fill-rule:evenodd;clip-rule:evenodd;stroke-linejoin:round;stroke-miterlimit:2;">
    <g id="mardi" transform="matrix(1,0,0,1,30.8471,33.9074)">
        <path d="M33.773,19.798L35.123,19.648C49.073,46.348 44.573,64.798 35.123,73.498C28.373,80.098 18.323,78.298 14.123,71.098C10.673,64.198 13.523,57.748 19.223,53.698C26.573,48.898 34.523,35.548 33.773,19.798ZM35.688,25.346C34.607,39.396 27.19,50.861 20.333,55.363C15.498,58.823 12.983,64.277 15.89,70.157C19.486,76.227 28.003,77.663 33.725,72.068C33.739,72.054 33.753,72.04 33.768,72.027C42.223,64.243 46.165,48.291 35.688,25.346ZM116.423,21.148L142.373,37.798C141.773,39.298 140.273,40.348 136.523,39.748C125.423,48.748 109.373,60.448 92.873,68.698C102.623,91.348 119.423,105.598 148.523,114.448L148.373,116.098C137.873,118.348 131.123,126.298 128.873,137.848C94.373,121.348 83.873,89.548 80.273,41.398C77.573,84.598 66.023,116.998 4.523,137.698L3.323,135.748C61.373,100.948 57.023,57.448 57.023,-3.902L87.023,-1.202C86.573,1.198 85.073,2.548 81.323,3.148L81.323,5.398C82.523,30.148 85.523,50.098 91.823,66.148C101.273,52.198 111.773,32.698 116.423,21.148ZM94.629,65.553C110.049,57.48 124.851,46.637 135.263,38.195C135.705,37.837 136.278,37.683 136.839,37.773C137.69,37.91 138.368,37.971 138.901,37.947L117.352,24.121C112.514,35.423 103.258,52.528 94.629,65.553ZM10.973,133.282C36.95,123.521 52.94,111.388 62.793,96.863C73.51,81.064 76.951,62.486 78.277,41.273C78.342,40.224 79.209,39.405 80.261,39.398C81.312,39.392 82.189,40.201 82.267,41.249C85.722,87.45 95.421,118.43 127.487,134.928C130.019,125.237 135.787,118.273 144.269,115.195C116.739,106.065 100.596,91.698 91.036,69.489C90.821,68.989 90.825,68.448 91.008,67.975C90.536,67.764 90.156,67.375 89.961,66.879C83.595,50.66 80.538,30.505 79.325,5.495C79.324,5.463 79.323,5.43 79.323,5.398L79.323,3.148C79.323,2.166 80.037,1.329 81.007,1.173C82.047,1.007 82.861,0.793 83.48,0.487C83.48,0.487 59.024,-1.714 59.024,-1.714C59.108,56.865 62.205,99.163 10.973,133.282Z" style="fill:white;"/>
    </g>
</svg>
