<?xml version="1.0" encoding="UTF-8" standalone="no"?>
<!DOCTYPE svg PUBLIC "-//W3C//DTD SVG 1.1//EN" "http://www.w3.org/Graphics/SVG/1.1/DTD/svg11.dtd">
<svg width="100%" height="100%" viewBox="0 0 200 200" version="1.1" xmlns="http://www.w3.org/2000/svg" xmlns:xlink="http://www.w3.org/1999/xlink" xml:space="preserve" xmlns:serif="http://www.serif.com/" style="fill-rule:evenodd;clip-rule:evenodd;stroke-linejoin:round;stroke-miterlimit:2;">
    <g id="mercredi" transform="matrix(1,0,0,1,30.8471,33.9074)">
        <path d="M120.623,19.798L144.923,35.548C144.173,37.048 142.673,37.948 138.923,37.498C129.323,44.998 115.373,54.748 101.123,62.248C113.423,82.648 130.373,94.048 146.873,101.548L146.123,103.198C137.123,104.998 130.523,112.798 127.523,122.848C105.023,102.898 92.273,79.048 86.273,29.698L86.273,112.648C86.273,127.498 82.823,135.448 58.073,137.548C57.473,130.348 56.423,125.398 53.423,121.948C50.423,118.648 46.973,116.248 37.823,114.598L37.823,112.648C37.823,112.648 56.723,113.848 60.623,113.848C63.173,113.848 64.073,112.948 64.073,111.148L64.073,47.248C63.323,47.398 62.273,47.548 61.073,47.698C54.173,77.548 38.573,106.498 3.923,123.148L2.723,121.648C23.873,102.748 34.823,73.048 39.023,44.548L7.973,44.548L6.623,40.348L37.823,40.348L48.323,29.398L64.073,42.748L64.073,-4.502L91.523,-1.802C91.223,0.298 90.173,1.648 86.273,2.248L86.273,19.798C88.823,35.098 93.323,47.698 98.873,58.048C107.423,45.598 116.273,29.548 120.623,19.798ZM90.253,43.444C96.545,81.341 107.99,102.055 126.611,119.322C129.823,110.953 135.568,104.483 143.035,101.959C127.181,94.302 111.205,82.843 99.41,63.281C99.126,62.809 99.048,62.241 99.196,61.711C99.344,61.181 99.704,60.735 100.191,60.478C114.329,53.038 128.167,43.363 137.692,35.922C138.108,35.597 138.636,35.449 139.161,35.512C140.072,35.622 140.791,35.664 141.36,35.622L121.478,22.736C116.833,32.66 108.547,47.494 100.521,59.18C100.126,59.756 99.46,60.083 98.763,60.045C98.067,60.007 97.44,59.608 97.11,58.993C94.584,54.282 92.271,49.113 90.253,43.444ZM9.164,118.171C38.933,101.473 52.77,74.737 59.124,47.248C59.313,46.43 59.992,45.818 60.825,45.714C61.967,45.571 62.967,45.43 63.681,45.287C64.268,45.17 64.877,45.322 65.341,45.701C65.804,46.081 66.073,46.649 66.073,47.248L66.073,111.148C66.073,112.755 65.55,113.911 64.579,114.714C63.77,115.384 62.521,115.848 60.623,115.848C58.64,115.848 52.8,115.54 47.511,115.236C50.925,116.713 52.992,118.502 54.903,120.603C54.913,120.614 54.922,120.625 54.932,120.636C57.873,124.018 59.18,128.706 59.878,135.371C70.342,134.305 76.498,132.141 80.014,128.492C83.641,124.727 84.273,119.456 84.273,112.648L84.273,29.698C84.273,28.77 84.907,27.982 85.776,27.761C85.231,25.293 84.737,22.749 84.3,20.127C84.282,20.018 84.273,19.908 84.273,19.798L84.273,2.248C84.273,1.261 84.993,0.422 85.969,0.271C86.75,0.151 87.382,0.021 87.887,-0.15L66.073,-2.295L66.073,42.748C66.073,43.527 65.62,44.235 64.914,44.563C64.207,44.89 63.374,44.778 62.78,44.274C62.78,44.274 48.465,32.14 48.465,32.14L39.266,41.732C38.889,42.126 38.368,42.348 37.823,42.348L9.366,42.348L9.431,42.548L39.023,42.548C39.604,42.548 40.157,42.801 40.537,43.241C40.917,43.681 41.086,44.265 41.001,44.84C37.086,71.406 27.342,98.973 9.164,118.171Z" style="fill:white;"/>
    </g>
</svg>
